<svg xmlns="http://www.w3.org/2000/svg" width="128" height="128" viewBox="0 0 128 128"><path d="M22 58 L24 12 L54 34 Z M106 58 L104 12 L74 34 Z" fill="#ff9f43" stroke="#3b2416" stroke-width="7" stroke-linejoin="round" stroke-linecap="round"/><path d="M30 44 L32 24 L46 34 Z M98 44 L96 24 L82 34 Z" fill="#ffb3c6"/><ellipse cx="64" cy="70" rx="48" ry="42" fill="#ff9f43" stroke="#3b2416" stroke-width="7" stroke-linejoin="round" stroke-linecap="round"/><path d="M56 34 L58 46 M64 32 V46 M72 34 L70 46" stroke="#d9772a" stroke-width="5" stroke-linecap="round"/><ellipse cx="46" cy="68" rx="7" ry="10" fill="#3b2416"/><ellipse cx="82" cy="68" rx="7" ry="10" fill="#3b2416"/><circle cx="48" cy="64" r="3" fill="#fff"/><circle cx="84" cy="64" r="3" fill="#fff"/><path d="M58 84 L70 84 L64 91 Z" fill="#ff7eb6" stroke="#3b2416" stroke-width="3" stroke-linejoin="round"/><path d="M52 98 C58 102 64 96 64 91 C64 96 70 102 76 98" fill="none" stroke="#3b2416" stroke-width="4" stroke-linecap="round"/></svg>
